<svg width="16" height="17" viewBox="0 0 16 17" fill="none" xmlns="http://www.w3.org/2000/svg">
<path d="M8 2C8 1.60218 8.15804 1.22064 8.43934 0.93934C8.72064 0.658035 9.10218 0.5 9.5 0.5C9.89782 0.5 10.2794 0.658035 10.5607 0.93934C10.842 1.22064 11 1.60218 11 2V2.5C11 2.76522 11.1054 3.01957 11.2929 3.20711C11.4804 3.39464 11.7348 3.5 12 3.5H15C15.2652 3.5 15.5196 3.60536 15.7071 3.79289C15.8946 3.98043 16 4.23478 16 4.5V7.5C16 7.76522 15.8946 8.01957 15.7071 8.20711C15.5196 8.39464 15.2652 8.5 15 8.5H14.5C14.1022 8.5 13.7206 8.65804 13.4393 8.93934C13.158 9.22064 13 9.60218 13 10C13 10.3978 13.158 10.7794 13.4393 11.0607C13.7206 11.342 14.1022 11.5 14.5 11.5H15C15.2652 11.5 15.5196 11.6054 15.7071 11.7929C15.8946 11.9804 16 12.2348 16 12.5V15.5C16 15.7652 15.8946 16.0196 15.7071 16.2071C15.5196 16.3946 15.2652 16.5 15 16.5H12C11.7348 16.5 11.4804 16.3946 11.2929 16.2071C11.1054 16.0196 11 15.7652 11 15.5V15C11 14.6022 10.842 14.2206 10.5607 13.9393C10.2794 13.658 9.89782 13.5 9.5 13.5C9.10218 13.5 8.72064 13.658 8.43934 13.9393C8.15804 14.2206 8 14.6022 8 15V15.5C8 15.7652 7.89464 16.0196 7.70711 16.2071C7.51957 16.3946 7.26522 16.5 7 16.5H4C3.73478 16.5 3.48043 16.3946 3.29289 16.2071C3.10536 16.0196 3 15.7652 3 15.5V12.5C3 12.2348 2.89464 11.9804 2.70711 11.7929C2.51957 11.6054 2.26522 11.5 2 11.5H1.5C1.10218 11.5 0.720644 11.342 0.43934 11.0607C0.158035 10.7794 0 10.3978 0 10C0 9.60218 0.158035 9.22064 0.43934 8.93934C0.720644 8.65804 1.10218 8.5 1.5 8.5H2C2.26522 8.5 2.51957 8.39464 2.70711 8.20711C2.89464 8.01957 3 7.76522 3 7.5V4.5C3 4.23478 3.10536 3.98043 3.29289 3.79289C3.48043 3.60536 3.73478 3.5 4 3.5H7C7.26522 3.5 7.51957 3.39464 7.70711 3.20711C7.89464 3.01957 8 2.76522 8 2.5V2Z" fill="#644C83"/>
</svg>
